<svg version="1.0" id="Layer_1" xmlns="http://www.w3.org/2000/svg" xmlns:xlink="http://www.w3.org/1999/xlink" x="0px" y="0px" viewBox="21 59.20000076293945 197.90000915527344 46.79999923706055" style="enable-background:new 0 0 240 165.2;" xml:space="preserve">
<style type="text/css">
	.st0{fill:#0D2065;}
	.st1{fill:url(#b_00000079447103490905172250000009884154919254971559_);}
</style>
<path class="st0" d="M84,99.8v-9l7.6,9h8.4L88.6,87l9.5-10h-8.6L84,83.2V64.6h-6.8v35.2H84z M113.2,100.2c1.8,0,5.2-0.8,6.7-3v2.6
	h6.8V77h-6.8v2.5c-1.8-2.5-5.2-3-6.7-3c-6.5,0.2-11.7,5.7-11.5,12.2C101.9,95,106.9,100,113.2,100.2L113.2,100.2z M114.4,93.8
	c-3,0.1-5.5-2.2-5.6-5.2s2.2-5.5,5.2-5.6c0.2,0,0.3,0,0.5,0c3-0.1,5.5,2.2,5.6,5.2s-2.2,5.5-5.2,5.6
	C114.7,93.8,114.5,93.8,114.4,93.8z M139.7,99.8v-8c0-6,1.8-9.1,5.7-9.1c1.2,0,2.4,0.2,3.5,0.7l1.2-6.1c-1.2-0.6-2.6-0.9-3.9-0.8
	c-2.4,0-5.3,1.8-6.4,6V77h-6.8v22.8H139.7z M160.4,99.8v-12c0-3.5,1.9-4.6,4-4.6s3.7,1.5,3.8,4.4v12.3h6.8v-12
	c0-3.3,1.8-4.6,3.9-4.6s3.8,1.6,3.8,4.5v12.2h6.8v-13c0-6.9-3.4-10.3-8.8-10.3c-2.8,0-5.5,1.5-6.9,4c-1.3-2.6-3.7-4-7.3-4
	c-2.6,0-4.9,1.4-6,3.8V77h-6.8v22.8H160.4z M205.6,100.2c1.8,0,5.2-0.8,6.6-3v2.6h6.7V77h-6.8v2.5c-1.8-2.5-5.2-3-6.6-3
	c-6.5,0.2-11.7,5.7-11.5,12.2C194.3,95,199.3,100,205.6,100.2L205.6,100.2z M206.7,93.8c-3,0.1-5.5-2.2-5.6-5.2s2.2-5.5,5.2-5.6
	c0.2,0,0.3,0,0.5,0c3-0.1,5.5,2.2,5.6,5.2s-2.2,5.5-5.2,5.6C207.1,93.8,206.9,93.8,206.7,93.8z"></path>
<linearGradient id="b_00000058583168879504080400000010274724662695441036_" gradientUnits="userSpaceOnUse" x1="-170.1473" y1="116.9225" x2="-170.1473" y2="118.5722" gradientTransform="matrix(28.45 0 0 28.38 4885.1001 -3259.5781)">
	<stop offset="0" style="stop-color:#0027DA"></stop>
	<stop offset="1" style="stop-color:#13B8C2"></stop>
</linearGradient>
<path id="b" style="fill:url(#b_00000058583168879504080400000010274724662695441036_);" d="M44.5,59.2c12.9,0,23.4,10.5,23.3,23.5
	S57.3,106,44.3,106C31.4,106,21,95.5,21,82.6C21,69.6,31.5,59.2,44.5,59.2C44.5,59.2,44.5,59.2,44.5,59.2z M44.5,70.9
	c-6.5,0-11.7,5.3-11.7,11.7c0,6.5,5.3,11.7,11.7,11.7c6.5,0,11.7-5.3,11.7-11.7C56.2,76.1,51,70.9,44.5,70.9
	C44.5,70.9,44.5,70.9,44.5,70.9z"></path>
</svg>