<svg version="1.0" id="katman_1" xmlns="http://www.w3.org/2000/svg" xmlns:xlink="http://www.w3.org/1999/xlink" x="0px" y="0px" viewBox="59.62940216064453 256.6426086425781 662.9705810546875 79.05740356445312" style="enable-background:new 0 0 800 600;" xml:space="preserve">
<style type="text/css">
	.st0{fill:#00010F;}
	.st1{fill:#0000FD;}
</style>
<path class="st0" d="M165.5,273.6c0.2,0,0.3-0.1,0.5-0.1c3,0,6.4-0.9,8.8,0.3c2.4,1.1,3.7,4.2,5.4,6.5c3,4,6,8,9.1,12.3
	c4.1-5.5,8.1-10.7,11.8-16.1c1.6-2.4,3.4-3.4,6.2-3.1c1.9,0.1,3.8,0.1,5.7,0v44.4h-8.2v-31.4l-0.5-0.2c-0.7,0.8-1.3,1.7-2,2.5
	c-3.8,4.9-7.5,9.9-11.3,14.8c-1.6,2.1-2.3,2.1-3.8,0c-4.3-5.8-8.6-11.6-13.3-17.9v32h-8.5V273.6z"></path>
<path class="st0" d="M261.9,273.2c6.7,0,13.3,0,19.9,0c2,0,4.1,0.1,6.1,0.4c12,2.3,14.5,14.2,10.4,22c-1.7,3.1-3.4,4.3-9.5,6.6
	l6.9,7.7l7.1,7.9c-3.9,0-7.2,0.1-10.5-0.1c-0.5,0-1-0.8-1.5-1.3c-3.6-4-7.2-7.9-10.7-12c-0.9-1.2-2.4-1.8-3.9-1.7
	c-1.9,0.1-3.8,0-5.9,0v14.8h-8.5L261.9,273.2z M270.3,295.3c4.9,0,9.5,0.2,14.2,0c1.9,0,3.8-0.8,5.1-2.2c1.3-1.4,2-3.3,1.9-5.2
	c-0.2-4-3.3-6.8-7.6-6.9c-2.5,0-5,0-7.4,0h-6.2L270.3,295.3z"></path>
<path class="st0" d="M606.8,317.6h-8.3v-44.4c2,0,4.2-0.1,6.3,0.1c0.6,0,1.1,0.8,1.6,1.4c6.5,8.1,12.9,16.1,19.4,24.2
	c0.4,0.4,0.8,0.9,1.4,1.6v-27.1h8.3v43.9c-3.5,1-4.9,0.6-7.1-2.2l-19.9-25.2c-0.5-0.6-0.9-1.1-1.7-2L606.8,317.6z"></path>
<path class="st0" d="M222.3,317.9v-44.6h33v8h-24.7v10.2h23.8v7.8h-23.9v10.4h24.8v8.3H222.3z"></path>
<path class="st0" d="M419,273.2v7.9h-24.8v10.3h23.9v7.8h-23.9v10.4h24.7v8.3H386v-44.6H419z"></path>
<path class="st0" d="M589.3,273.2v7.9h-24.8v10.3h23.9v7.8h-23.9v10.4h24.7v8.3h-32.9v-44.6H589.3z"></path>
<path class="st0" d="M697.7,281.1v10.3h23.9v7.9h-23.9v10.4h24.8v8.3h-32.9v-44.6h33v7.9H697.7z"></path>
<path class="st0" d="M486.5,280.7l-6.9,3.6c-4-4.5-9-5.9-14.6-4.6c-1.2,0.3-2.3,0.7-3.2,1.4c-3.4,2.3-3.1,6.9,0.8,8.3
	c2.9,1.1,6.2,1.3,9.3,2.1c2.6,0.5,5.2,1.2,7.7,2c4.6,1.5,7.8,5.7,8,10.6c0.5,5.7-1.3,10.5-6.6,13.2c-8,4.1-16.3,4-24.5,0.3
	c-3.5-1.7-6.1-4.7-7.2-8.5c0.2-0.2,0.4-0.4,0.6-0.5c2-1,3.9-2.1,6-3.2c3.8,6.7,9.8,8,16.7,6.8c1.2-0.2,2.4-0.7,3.5-1.3
	c4.1-2.4,4.2-7.9-0.2-9.8c-3.1-1.3-6.6-1.6-9.9-2.4c-3-0.8-6.1-1.3-8.9-2.7c-7.5-3.8-8.4-14.7-1.8-20c6.6-5.3,20.1-5.4,26.8,0
	C483.8,277.4,485.2,279,486.5,280.7z"></path>
<path class="st0" d="M305.5,317.7v-44.1h8.3v18.7c3.6-3.9,6.7-7.3,9.8-10.7c0.5-0.5,0.9-1.1,1.5-1.6c2-2.1,3.7-5.3,6.2-6.2
	c3-1.1,6.6-0.3,10.5-0.3c-3.6,3.8-6.9,7.3-10.2,10.8c-3.3,3.5-6.6,7-10.1,10.7l22.2,22.9c-3.9,0-7.2,0.1-10.5-0.1
	c-0.6,0-1.2-0.7-1.7-1.2c-5.4-5.5-10.8-11.1-16.2-16.8c-0.4-0.4-0.8-0.7-1.4-1.3v19.2H305.5z"></path>
<path class="st0" d="M529.4,306.8l5.7,5.5c-6.9,8.7-25,9.2-34,0.9c-9.4-8.6-9.2-26.3,0.2-35.2c8.9-8.5,25.9-8,33,0.7l-5.2,5.4
	c-9-5.7-17.8-5.2-23.1,1.1c-5,6-4.7,15.9,0.5,21.5C512,312.5,521.4,312.6,529.4,306.8z"></path>
<path class="st0" d="M677.4,306.8l5.6,5.6c-7.2,8.8-25.3,9.1-34.2,0.7c-9.2-8.8-8.9-26.4,0.6-35.2c9-8.3,26-7.7,32.7,0.8l-5.1,5.6
	c-8.7-5.7-17.6-5.3-22.9,0.9c-5.1,6-4.9,15.7,0.3,21.5C659.7,312.5,668.9,312.6,677.4,306.8z"></path>
<path class="st0" d="M356,310.2h23.4v7.7h-31.7v-44.6h8.3V310.2z"></path>
<path class="st0" d="M540.4,273.2h7.9v44.6h-7.9V273.2z"></path>
<path class="st1" d="M137.1,286.1c-0.7-2.8-1.8-5.6-3.2-8.2l-6.6,5.4l-15,12.4l6.5,5.4l10.9-9c0.2,1.3,0.2,2.5,0.2,3.8
	c0,4.3-0.9,8.5-2.6,12.4l6.6,5.4C138.4,305.2,139.5,295.4,137.1,286.1L137.1,286.1z"></path>
<path class="st1" d="M99.2,307.4l-2.3-1.9l-9-7.5l-2.3-2l-15-12.6l-6.5-5.5c-1.4,2.6-2.5,5.4-3.2,8.3c-2.4,9.4-1.4,19.3,3,27.9
	l6.6-5.5c-1.7-3.9-2.6-8.1-2.6-12.4c0-1.3,0.1-2.6,0.3-3.9l10.9,9.1l2.4,2l9,7.5l2.3,1.9l6.5,5.5l6.6-5.5l2.5-2.1l-6.5-5.5
	L99.2,307.4z"></path>
<path class="st1" d="M79.7,271.9c0.8-0.6,1.6-1.2,2.4-1.8c7.2-4.8,16.1-6.3,24.5-4.3c8.4,2,15.6,7.4,19.8,14.9l6.4-5.4
	c-5.8-9.4-15.4-16-26.3-18c-10.9-2-22.2,0.6-31,7.3c-0.8,0.6-1.5,1.2-2.3,1.9c-2.1,1.9-4,3.9-5.7,6.2l53.9,45.3
	c-10.5,10.8-27.3,12.4-39.7,3.9c-0.8-0.6-1.6-1.2-2.4-1.8c-3-2.5-5.4-5.5-7.3-8.8l-6.4,5.4c7.2,11.8,19.9,19,33.7,19
	s26.5-7.2,33.7-19l-6.4-5.4L79.7,271.9z"></path>
</svg>